<svg version="1.1" xmlns="http://www.w3.org/2000/svg" viewBox="0 0 377.14635657740746 252.45597829302096" width="1131.4390697322224" height="757.3679348790629" filter="invert(93%) hue-rotate(180deg)">
  <!-- svg-source:excalidraw -->
  
  <defs>
    <style class="style-fonts">
      @font-face {
        font-family: "Virgil";
        src: url("https://excalidraw.com/Virgil.woff2");
      }
      @font-face {
        font-family: "Cascadia";
        src: url("https://excalidraw.com/Cascadia.woff2");
      }
      @font-face {
        font-family: "Assistant";
        src: url("https://excalidraw.com/Assistant-Regular.woff2");
      }
    </style>
    
  </defs>
  <g stroke-linecap="round" transform="translate(13.294110218311289 10) rotate(0 176.92612317954809 116.22798914651048)"><path d="M0 0 C89.78 1.12, 182.57 1.47, 353.85 0 M0 0 C113.33 -1.82, 227.88 -1.47, 353.85 0 M353.85 0 C353.39 83.56, 352.04 168.67, 353.85 232.46 M353.85 0 C354.84 66.41, 353.86 135.07, 353.85 232.46 M353.85 232.46 C268.71 231.21, 180.91 230.78, 0 232.46 M353.85 232.46 C217.93 231.83, 82.22 232.15, 0 232.46 M0 232.46 C-2.44 162.65, -0.68 91.68, 0 0 M0 232.46 C-1.11 147.97, -0.42 64.33, 0 0" stroke="#000000" stroke-width="1" fill="none"></path></g><g stroke-linecap="round" transform="translate(12.945099513513014 11.417422767033713) rotate(0 29.71818911748022 6.52873983708443)"><path d="M-0.52 -0.32 L59.7 -0.89 L59.58 13.05 L0.8 13.58" stroke="none" stroke-width="0" fill="#ced4da"></path><path d="M0 0 C17.1 0.55, 32.73 -1.1, 59.44 0 M0 0 C23.1 0.31, 46.16 -0.54, 59.44 0 M59.44 0 C59.52 2.73, 59.42 6.47, 59.44 13.06 M59.44 0 C59.42 4.17, 59.31 7.81, 59.44 13.06 M59.44 13.06 C44.5 12.69, 30.92 12.71, 0 13.06 M59.44 13.06 C42.14 12.86, 25.16 13.29, 0 13.06 M0 13.06 C0.39 9.86, 0.44 7.56, 0 0 M0 13.06 C0.27 9.8, -0.07 6.14, 0 0" stroke="#000000" stroke-width="1" fill="none"></path></g><g stroke-linecap="round" transform="translate(127.12443371527388 10.082007811470248) rotate(0 119.23812560743573 7.777002238683764)"><path d="M0.26 -0.89 L238.62 -0.01 L239.28 16.08 L-0.56 16.14" stroke="none" stroke-width="0" fill="#ced4da"></path><path d="M0 0 C81.36 -1.49, 163.07 -1.31, 238.48 0 M0 0 C76.74 -1.14, 152.71 -0.4, 238.48 0 M238.48 0 C238.39 3.48, 238.43 7.5, 238.48 15.55 M238.48 0 C238.24 3.52, 238.25 7.09, 238.48 15.55 M238.48 15.55 C168.32 14.91, 96.67 14.92, 0 15.55 M238.48 15.55 C180.43 15.83, 122.05 15.28, 0 15.55 M0 15.55 C0.45 11.11, -0.3 5.78, 0 0 M0 15.55 C-0.15 11.18, -0.26 6.52, 0 0" stroke="#000000" stroke-width="1" fill="none"></path></g><g stroke-linecap="round"><g transform="translate(11.17703327909112 32.07230079525834) rotate(0 177.2651524677733 -0.7654575851454695)"><path d="M-1.18 1.03 C57.62 0.77, 294.26 -1.01, 353.61 -1.28 M0.41 0.52 C59.51 -0.14, 296.84 -2.77, 355.85 -3.28" stroke="#000000" stroke-width="1" fill="none"></path></g></g><mask></mask><g transform="translate(37.89564200285804 18.823777219004114) rotate(0 0.00004148618609178811 0.00004148618612020982)" stroke="none"><path fill="#e67700" d="M 3.14,-3.14 Q 3.14,-3.14 3.55,-2.55 3.97,-1.97 4.18,-1.28 4.40,-0.59 4.38,0.11 4.36,0.83 4.11,1.51 3.86,2.18 3.41,2.74 2.96,3.30 2.36,3.69 1.75,4.07 1.05,4.25 0.36,4.42 -0.35,4.36 -1.07,4.30 -1.73,4.02 -2.39,3.74 -2.92,3.26 -3.46,2.78 -3.81,2.15 -4.16,1.53 -4.30,0.82 -4.43,0.11 -4.34,-0.59 -4.24,-1.30 -3.92,-1.94 -3.60,-2.59 -3.09,-3.09 -2.59,-3.60 -1.94,-3.92 -1.30,-4.24 -0.59,-4.34 0.12,-4.43 0.82,-4.30 1.53,-4.16 2.15,-3.81 2.78,-3.46 3.26,-2.92 3.74,-2.39 4.02,-1.73 4.31,-1.07 4.36,-0.35 4.42,0.36 4.25,1.05 4.07,1.75 3.69,2.36 3.30,2.96 2.74,3.41 2.18,3.86 1.51,4.11 0.83,4.36 0.11,4.38 -0.60,4.40 -1.28,4.18 -1.97,3.97 -2.55,3.55 -3.14,3.13 -3.14,3.14 -3.14,3.14 -3.47,2.71 -3.80,2.29 -4.02,1.80 -4.24,1.32 -4.33,0.79 -4.43,0.26 -4.40,-0.26 -4.36,-0.80 -4.20,-1.31 -4.04,-1.82 -3.77,-2.28 -3.49,-2.73 -3.11,-3.11 -2.73,-3.49 -2.28,-3.77 -1.82,-4.05 -1.31,-4.20 -0.80,-4.36 -0.26,-4.40 0.26,-4.43 0.79,-4.33 1.32,-4.24 1.80,-4.02 2.29,-3.80 2.71,-3.47 3.14,-3.14 3.14,-3.14 L 3.14,-3.14 Z"></path></g><g transform="translate(25.58639888956168 18.999499441633816) rotate(0 0.00004148618609178811 0.00004148618612020982)" stroke="none"><path fill="#c92a2a" d="M 3.14,-3.14 Q 3.14,-3.14 3.55,-2.55 3.97,-1.97 4.18,-1.28 4.40,-0.59 4.38,0.11 4.36,0.83 4.11,1.51 3.86,2.18 3.41,2.74 2.96,3.30 2.36,3.69 1.75,4.07 1.05,4.25 0.36,4.42 -0.35,4.36 -1.07,4.30 -1.73,4.02 -2.39,3.74 -2.92,3.26 -3.46,2.78 -3.81,2.15 -4.16,1.53 -4.30,0.82 -4.43,0.11 -4.34,-0.59 -4.24,-1.30 -3.92,-1.94 -3.60,-2.59 -3.09,-3.09 -2.59,-3.60 -1.94,-3.92 -1.30,-4.24 -0.59,-4.34 0.12,-4.43 0.82,-4.30 1.53,-4.16 2.15,-3.81 2.78,-3.46 3.26,-2.92 3.74,-2.39 4.02,-1.73 4.31,-1.07 4.36,-0.35 4.42,0.36 4.25,1.05 4.07,1.75 3.69,2.36 3.30,2.96 2.74,3.41 2.18,3.86 1.51,4.11 0.83,4.36 0.11,4.38 -0.60,4.40 -1.28,4.18 -1.97,3.97 -2.55,3.55 -3.14,3.13 -3.14,3.14 -3.14,3.14 -3.47,2.71 -3.80,2.29 -4.02,1.80 -4.24,1.32 -4.33,0.79 -4.43,0.26 -4.40,-0.26 -4.36,-0.80 -4.20,-1.31 -4.04,-1.82 -3.77,-2.28 -3.49,-2.73 -3.11,-3.11 -2.73,-3.49 -2.28,-3.77 -1.82,-4.05 -1.31,-4.20 -0.80,-4.36 -0.26,-4.40 0.26,-4.43 0.79,-4.33 1.32,-4.24 1.80,-4.02 2.29,-3.80 2.71,-3.47 3.14,-3.14 3.14,-3.14 L 3.14,-3.14 Z"></path></g><g transform="translate(49.164846154729275 18.867522933611326) rotate(0 0.00004148618609178811 0.00004148618612020982)" stroke="none"><path fill="#087f5b" d="M 3.14,-3.14 Q 3.14,-3.14 3.55,-2.55 3.97,-1.97 4.18,-1.28 4.40,-0.59 4.38,0.11 4.36,0.83 4.11,1.51 3.86,2.18 3.41,2.74 2.96,3.30 2.36,3.69 1.75,4.07 1.05,4.25 0.36,4.42 -0.35,4.36 -1.07,4.30 -1.73,4.02 -2.39,3.74 -2.92,3.26 -3.46,2.78 -3.81,2.15 -4.16,1.53 -4.30,0.82 -4.43,0.11 -4.34,-0.59 -4.24,-1.30 -3.92,-1.94 -3.60,-2.59 -3.09,-3.09 -2.59,-3.60 -1.94,-3.92 -1.30,-4.24 -0.59,-4.34 0.12,-4.43 0.82,-4.30 1.53,-4.16 2.15,-3.81 2.78,-3.46 3.26,-2.92 3.74,-2.39 4.02,-1.73 4.31,-1.07 4.36,-0.35 4.42,0.36 4.25,1.05 4.07,1.75 3.69,2.36 3.30,2.96 2.74,3.41 2.18,3.86 1.51,4.11 0.83,4.36 0.11,4.38 -0.60,4.40 -1.28,4.18 -1.97,3.97 -2.55,3.55 -3.14,3.13 -3.14,3.14 -3.14,3.14 -3.47,2.71 -3.80,2.29 -4.02,1.80 -4.24,1.32 -4.33,0.79 -4.43,0.26 -4.40,-0.26 -4.36,-0.80 -4.20,-1.31 -4.04,-1.82 -3.77,-2.28 -3.49,-2.73 -3.11,-3.11 -2.73,-3.49 -2.28,-3.77 -1.82,-4.05 -1.31,-4.20 -0.80,-4.36 -0.26,-4.40 0.26,-4.43 0.79,-4.33 1.32,-4.24 1.80,-4.02 2.29,-3.80 2.71,-3.47 3.14,-3.14 3.14,-3.14 L 3.14,-3.14 Z"></path></g><g stroke-linecap="round"><g transform="translate(113.71822090256501 14.32249614171451) rotate(0 3.075621749031143 3.415632684816245)"><path d="M-0.2 0.3 C0.74 1.49, 4.85 5.76, 5.86 6.84 M0.35 0.14 C1.38 1.43, 5.46 6.13, 6.51 7.3" stroke="#000000" stroke-width="1" fill="none"></path></g></g><mask></mask><g stroke-linecap="round"><g transform="translate(119.29792359551539 14.220207785605453) rotate(0 -2.919045487024107 3.154307313635883)"><path d="M-0.29 0.01 C-1.27 1.01, -5.18 5.22, -6.09 6.27 M0.21 -0.29 C-0.65 0.92, -4.39 5.54, -5.43 6.7" stroke="#000000" stroke-width="1" fill="none"></path></g></g><mask></mask><g stroke-linecap="round"><g transform="translate(135.36675105975337 12.147024606620107) rotate(0 0.10087620879824044 4.686826186445643)"><path d="M0 0 C0.03 1.56, 0.17 7.81, 0.2 9.37 M0 0 C0.03 1.56, 0.17 7.81, 0.2 9.37" stroke="#000000" stroke-width="1" fill="none"></path></g></g><mask></mask><g stroke-linecap="round"><g transform="translate(130.70685784167654 17.12439631047164) rotate(0 4.951748657124483 -0.1498452421954255)"><path d="M0 0 C1.65 -0.05, 8.25 -0.25, 9.9 -0.3 M0 0 C1.65 -0.05, 8.25 -0.25, 9.9 -0.3" stroke="#000000" stroke-width="1" fill="none"></path></g></g><mask></mask><g stroke-linecap="round" transform="translate(64.87495957618012 37.497323930001585) rotate(0 130.92833605216356 7.729590509962435)"><path d="M3.86 0 C102.32 -0.73, 197.77 -0.48, 257.99 0 C261.38 2.73, 263.67 4.83, 261.86 3.86 C261.65 5.57, 263.11 10.48, 261.86 11.59 C264.47 16.96, 259.78 13.93, 257.99 15.46 C185.47 17.53, 117.13 16.33, 3.86 15.46 C4.81 14.9, 2.53 12.33, 0 11.59 C0.46 8.66, -0.39 6.4, 0 3.86 C-1.89 1.28, 4.21 2.89, 3.86 0" stroke="none" stroke-width="0" fill="#ced4da"></path><path d="M3.86 0 C81.51 -2.28, 163.47 -2.79, 257.99 0 M3.86 0 C89.98 -2.07, 175.85 -1.18, 257.99 0 M257.99 0 C259.89 -0.23, 261.2 0.16, 261.86 3.86 M257.99 0 C259.83 -0.14, 261.89 3.15, 261.86 3.86 M261.86 3.86 C262.24 5.29, 262.3 7.78, 261.86 11.59 M261.86 3.86 C262.18 6.21, 261.77 8.08, 261.86 11.59 M261.86 11.59 C260.82 13.53, 261.09 13.67, 257.99 15.46 M261.86 11.59 C262.19 14.16, 262.41 16.66, 257.99 15.46 M257.99 15.46 C197.25 15.56, 133.49 16.63, 3.86 15.46 M257.99 15.46 C157.62 14.91, 56.47 14.14, 3.86 15.46 M3.86 15.46 C1.38 16.36, -0.53 13.37, 0 11.59 M3.86 15.46 C2.46 15.21, -0.48 16.08, 0 11.59 M0 11.59 C0.61 9.19, 0 7.13, 0 3.86 M0 11.59 C0.37 9.2, -0.14 6.24, 0 3.86 M0 3.86 C1.08 0.7, 2.95 0.47, 3.86 0 M0 3.86 C-0.35 3.46, -0.48 -1.78, 3.86 0" stroke="#000000" stroke-width="1" fill="none"></path></g><g stroke-linecap="round"><g transform="translate(18.871107505229702 45.28075761147193) rotate(89.99999999999994 6.113969126957841 3.2586316296810196)"><path d="M-0.14 0.55 C0.79 1.75, 4.05 6.65, 6.06 6.73 C8.08 6.82, 10.91 2.1, 11.94 1.05 M0.8 0.35 C1.86 1.42, 5.37 5.89, 7.14 5.88 C8.91 5.86, 10.57 1.08, 11.44 0.24" stroke="#000000" stroke-width="1" fill="none"></path></g></g><mask></mask><g stroke-linecap="round"><g transform="translate(28.813207185377905 54.45897077707923) rotate(90.26145384971288 -0.23335979689346686 -6.698560558743509)"><path d="M-0.31 0.21 C-0.41 -2.03, -0.73 -10.61, -0.76 -12.9 M0.53 -0.15 C0.62 -2.3, 0.55 -11.47, 0.33 -13.61" stroke="#000000" stroke-width="1" fill="none"></path></g></g><mask></mask><g stroke-linecap="round"><g transform="translate(49.757342174006226 44.000887390731805) rotate(270 6.113969126957841 3.2586316296810196)"><path d="M-0.29 0.5 C0.82 1.52, 4.3 6.29, 6.36 6.38 C8.41 6.46, 11.08 1.99, 12.03 1.01 M0.56 0.28 C1.62 1.37, 4.08 7.02, 5.92 7 C7.75 6.99, 10.55 1.19, 11.58 0.18" stroke="#000000" stroke-width="1" fill="none"></path></g></g><mask></mask><g stroke-linecap="round"><g transform="translate(50.49955597245844 55.528904066719406) rotate(90.26145384971288 -0.23335979689346686 -6.698560558743509)"><path d="M-0.02 -0.14 C-0.08 -2.38, -0.56 -10.72, -0.67 -12.94 M-0.69 -0.69 C-0.81 -2.84, -1.13 -11.63, -1.2 -13.67" stroke="#000000" stroke-width="1" fill="none"></path></g></g><mask></mask><g stroke-linecap="round"><g transform="translate(338.7294641381859 40.38237588103948) rotate(0 8.0335358317555 -0.4262233519958727)"><path d="M0 0 C2.68 -0.14, 13.39 -0.71, 16.07 -0.85 M0 0 C2.68 -0.14, 13.39 -0.71, 16.07 -0.85" stroke="#000000" stroke-width="2" fill="none"></path></g></g><mask></mask><g stroke-linecap="round"><g transform="translate(338.40373275502225 46.67984928887017) rotate(0 7.564746749295921 -0.8240517827799749)"><path d="M0 0 C2.52 -0.27, 12.61 -1.37, 15.13 -1.65 M0 0 C2.52 -0.27, 12.61 -1.37, 15.13 -1.65" stroke="#000000" stroke-width="2" fill="none"></path></g></g><mask></mask><g stroke-linecap="round"><g transform="translate(338.73270524647614 51.5042389788141) rotate(0 7.564746749295921 -0.8240517827799749)"><path d="M0 0 C2.52 -0.27, 12.61 -1.37, 15.13 -1.65 M0 0 C2.52 -0.27, 12.61 -1.37, 15.13 -1.65" stroke="#000000" stroke-width="2" fill="none"></path></g></g><mask></mask><g stroke-linecap="round"><g transform="translate(11.28923179501271 58.74159844548558) rotate(0 176.2562592228769 0.21561708208048458)"><path d="M-0.38 -0.07 C58.44 0.27, 293.86 1.42, 352.53 1.4 M1.62 -1.16 C60.31 -1.07, 292.85 -0.54, 351.59 -0.21" stroke="#000000" stroke-width="1" fill="none"></path></g></g><mask></mask><g stroke-linecap="round" transform="translate(68.87782819753102 41.289211717601574) rotate(0 3.559488294399614 3.5594882943995856)"><path d="M1.1 0.96 C1.1 0.96, 1.1 0.96, 1.1 0.96 M1.1 0.96 C1.1 0.96, 1.1 0.96, 1.1 0.96 M1.5 6.6 C2.64 5.29, 3.78 3.98, 6.09 1.32 M1.5 6.6 C3.12 4.74, 4.73 2.88, 6.09 1.32" stroke="#c8c8c8" stroke-width="0.5" fill="none"></path><path d="M7.12 3.56 C7.12 3.77, 7.1 3.97, 7.06 4.18 C7.03 4.38, 6.97 4.58, 6.9 4.78 C6.83 4.97, 6.75 5.16, 6.64 5.34 C6.54 5.52, 6.42 5.69, 6.29 5.85 C6.15 6.01, 6.01 6.15, 5.85 6.29 C5.69 6.42, 5.52 6.54, 5.34 6.64 C5.16 6.75, 4.97 6.83, 4.78 6.9 C4.58 6.97, 4.38 7.03, 4.18 7.06 C3.97 7.1, 3.77 7.12, 3.56 7.12 C3.35 7.12, 3.14 7.1, 2.94 7.06 C2.74 7.03, 2.54 6.97, 2.34 6.9 C2.15 6.83, 1.96 6.75, 1.78 6.64 C1.6 6.54, 1.43 6.42, 1.27 6.29 C1.11 6.15, 0.97 6.01, 0.83 5.85 C0.7 5.69, 0.58 5.52, 0.48 5.34 C0.37 5.16, 0.29 4.97, 0.21 4.78 C0.14 4.58, 0.09 4.38, 0.05 4.18 C0.02 3.97, 0 3.77, 0 3.56 C0 3.35, 0.02 3.14, 0.05 2.94 C0.09 2.74, 0.14 2.54, 0.21 2.34 C0.29 2.15, 0.37 1.96, 0.48 1.78 C0.58 1.6, 0.7 1.43, 0.83 1.27 C0.97 1.11, 1.11 0.97, 1.27 0.83 C1.43 0.7, 1.6 0.58, 1.78 0.48 C1.96 0.37, 2.15 0.29, 2.34 0.21 C2.54 0.14, 2.74 0.09, 2.94 0.05 C3.14 0.02, 3.35 0, 3.56 0 C3.77 0, 3.97 0.02, 4.18 0.05 C4.38 0.09, 4.58 0.14, 4.78 0.21 C4.97 0.29, 5.16 0.37, 5.34 0.48 C5.52 0.58, 5.69 0.7, 5.85 0.83 C6.01 0.97, 6.15 1.11, 6.29 1.27 C6.42 1.43, 6.54 1.6, 6.64 1.78 C6.75 1.96, 6.83 2.15, 6.9 2.34 C6.97 2.54, 7.03 2.74, 7.06 2.94 C7.1 3.14, 7.11 3.46, 7.12 3.56 C7.13 3.66, 7.13 3.46, 7.12 3.56" stroke="#000000" stroke-width="1" fill="none"></path></g><g stroke-linecap="round"><g transform="translate(75.18270122829745 47.89715881063603) rotate(0 2.250208345398562 1.8739302403971578)"><path d="M0 0 C0.75 0.62, 3.75 3.12, 4.5 3.75 M0 0 C0.75 0.62, 3.75 3.12, 4.5 3.75" stroke="#000000" stroke-width="1" fill="none"></path></g></g><mask></mask><g stroke-linecap="round" transform="translate(27.84514826820032 71.10295616330404) rotate(0 159.6624255968219 11.246254804374075)"><path d="M0 0 C0 0, 0 0, 0 0 M0 0 C0 0, 0 0, 0 0 M-0.26 6.4 C1.92 4.94, 3.71 3.3, 4.99 0.36 M-0.26 6.4 C1.39 4.41, 3.99 2.05, 4.99 0.36 M0.13 12.04 C3.75 6.86, 7.94 1.78, 10.63 -0.03 M0.13 12.04 C4.93 7.26, 8.72 2.36, 10.63 -0.03 M-0.13 18.44 C4.59 12.56, 7.4 7.51, 15.62 0.33 M-0.13 18.44 C4.57 13.82, 8.51 9.29, 15.62 0.33 M1.58 22.57 C7.93 15.01, 16.68 3.2, 21.26 -0.07 M1.58 22.57 C6.48 17.09, 10.2 12, 21.26 -0.07 M6.57 22.93 C13.78 15.17, 19.53 10.34, 26.25 0.29 M6.57 22.93 C12.24 17.11, 15.78 11.04, 26.25 0.29 M12.21 22.54 C17.84 15.66, 23.42 11.69, 31.89 -0.1 M12.21 22.54 C17.12 16.39, 20.54 11.08, 31.89 -0.1 M17.2 22.9 C23.01 15.58, 28.78 7.6, 36.88 0.26 M17.2 22.9 C24.66 14.72, 29.35 7.22, 36.88 0.26 M22.84 22.5 C27.39 16.1, 32.92 9.8, 42.52 -0.14 M22.84 22.5 C27.9 16.35, 34.1 9.55, 42.52 -0.14 M27.83 22.86 C36.33 16.14, 40.62 7.67, 47.51 0.22 M27.83 22.86 C33.64 16.93, 38.93 11.01, 47.51 0.22 M33.47 22.47 C42.23 13.34, 47.22 5.66, 53.15 -0.17 M33.47 22.47 C39.47 14.4, 46.45 8.34, 53.15 -0.17 M38.46 22.83 C45.5 16.55, 50.14 6.4, 58.14 0.19 M38.46 22.83 C43.25 16.94, 46.47 13.53, 58.14 0.19 M44.1 22.43 C53.12 14.15, 58.43 4.87, 63.78 -0.21 M44.1 22.43 C50.49 14.63, 58.18 5.79, 63.78 -0.21 M49.09 22.79 C55.96 16.09, 61.03 8.17, 68.77 0.15 M49.09 22.79 C56.53 14.9, 61.92 7.76, 68.77 0.15 M54.73 22.4 C59.22 15.48, 67.95 9.39, 74.41 -0.24 M54.73 22.4 C61.58 14.77, 68.92 6.98, 74.41 -0.24 M59.72 22.76 C65.04 18.58, 67.87 11.35, 79.4 0.12 M59.72 22.76 C63.5 17.91, 69.48 12.13, 79.4 0.12 M65.36 22.37 C73.16 15.16, 79.56 9.23, 85.04 -0.28 M65.36 22.37 C72.66 14.83, 78.68 6, 85.04 -0.28 M70.35 22.73 C76.12 15.65, 78.14 10.54, 90.03 0.08 M70.35 22.73 C75.98 17.09, 79.96 11.93, 90.03 0.08 M75.99 22.33 C84.13 14.24, 86.57 8.86, 95.67 -0.31 M75.99 22.33 C82.13 16.06, 86.97 9.33, 95.67 -0.31 M80.98 22.69 C84.94 14.68, 90.66 9.54, 100.66 0.05 M80.98 22.69 C88.26 13.99, 93.81 6.87, 100.66 0.05 M86.62 22.3 C91.25 15.03, 97.17 9.15, 106.3 -0.34 M86.62 22.3 C91.85 16.77, 95.86 11.21, 106.3 -0.34 M91.61 22.66 C96.51 19.15, 100.53 13.75, 111.29 0.02 M91.61 22.66 C98.55 15.25, 104.54 7.17, 111.29 0.02 M96.59 23.02 C104.09 15.3, 106.89 9.19, 116.27 0.38 M96.59 23.02 C103.24 16.34, 109.97 7.58, 116.27 0.38 M102.24 22.62 C108.93 12.65, 118.71 4.52, 121.92 -0.02 M102.24 22.62 C109.47 14.58, 117.02 4.05, 121.92 -0.02 M107.22 22.98 C110 19.14, 118.07 14.05, 126.91 0.34 M107.22 22.98 C112.47 18.13, 117.89 12.66, 126.91 0.34 M112.87 22.59 C117.29 19.28, 120.32 10.81, 132.55 -0.05 M112.87 22.59 C118.09 16.12, 123.73 9.09, 132.55 -0.05 M117.85 22.95 C120.52 17.1, 126.04 13.43, 137.54 0.31 M117.85 22.95 C124.18 14.92, 131.55 7.1, 137.54 0.31 M123.5 22.55 C132.66 13.69, 139.1 6.37, 143.18 -0.09 M123.5 22.55 C128.79 17.12, 133.39 12.88, 143.18 -0.09 M128.48 22.91 C134.66 14.2, 142.61 6.73, 148.17 0.27 M128.48 22.91 C134.09 16.28, 139.19 9.19, 148.17 0.27 M134.13 22.52 C141.07 16.46, 147.03 11.04, 153.81 -0.12 M134.13 22.52 C140.89 13.34, 148.76 5.45, 153.81 -0.12 M139.11 22.88 C143.29 16.73, 148.52 11.35, 158.8 0.24 M139.11 22.88 C144.84 18.25, 148.95 11.26, 158.8 0.24 M144.76 22.48 C152.06 13.93, 158.21 4.69, 164.44 -0.16 M144.76 22.48 C152.27 13.13, 160.37 5.93, 164.44 -0.16 M149.74 22.84 C155.7 13.81, 163.56 3.6, 169.43 0.2 M149.74 22.84 C154.88 16.49, 161.79 8.45, 169.43 0.2 M155.39 22.45 C160.25 19.05, 163.05 13.38, 175.07 -0.19 M155.39 22.45 C163.55 14.17, 170.39 4.12, 175.07 -0.19 M160.37 22.81 C165.24 19.41, 168.87 15, 180.06 0.17 M160.37 22.81 C167.79 14.65, 176.94 5.1, 180.06 0.17 M166.02 22.41 C174.05 14.11, 180.38 6.83, 185.7 -0.23 M166.02 22.41 C171.39 18.18, 174.21 11.86, 185.7 -0.23 M171 22.78 C173.85 18.76, 178.82 12.36, 190.69 0.13 M171 22.78 C175.41 17.36, 181.05 12.24, 190.69 0.13 M176.65 22.38 C182.04 15.64, 192.41 4.55, 196.33 -0.26 M176.65 22.38 C183.21 15.83, 188.84 9.26, 196.33 -0.26 M181.63 22.74 C185.15 17.13, 190.55 11.33, 201.32 0.1 M181.63 22.74 C188.43 13.79, 196.38 6.01, 201.32 0.1 M187.28 22.35 C194.77 14.68, 202.13 4.47, 206.96 -0.3 M187.28 22.35 C194.96 13.94, 203.09 5.11, 206.96 -0.3 M192.26 22.71 C199.71 12.51, 207.04 6.91, 211.95 0.06 M192.26 22.71 C199.63 15.02, 206.7 6.26, 211.95 0.06 M197.91 22.31 C202.71 15.2, 207.45 10.89, 217.59 -0.33 M197.91 22.31 C203.55 13.87, 211.78 7.69, 217.59 -0.33 M202.89 22.67 C206.7 14.66, 212.91 9.67, 222.58 0.03 M202.89 22.67 C208.67 15.6, 215.47 9.43, 222.58 0.03 M208.54 22.28 C213.86 16.07, 222.58 6.9, 228.22 -0.36 M208.54 22.28 C215.65 14.9, 222.42 7.03, 228.22 -0.36 M213.52 22.64 C221.02 16.59, 227.29 7, 233.21 0 M213.52 22.64 C218.97 15.28, 227.06 8.33, 233.21 0 M218.51 23 C224.55 14.22, 229.26 8.74, 238.19 0.36 M218.51 23 C222.36 17.86, 226.16 12.71, 238.19 0.36 M224.15 22.6 C229.83 16.04, 238.59 7.29, 243.84 -0.04 M224.15 22.6 C228.07 17.61, 233.07 11.29, 243.84 -0.04 M229.14 22.96 C237.67 15.53, 242.5 4.88, 248.82 0.32 M229.14 22.96 C236.47 13.88, 244.67 5.98, 248.82 0.32 M234.78 22.57 C241.64 15.04, 249.52 5.91, 254.47 -0.07 M234.78 22.57 C240.65 14.53, 247.15 8.66, 254.47 -0.07 M239.77 22.93 C248.37 11.97, 256.63 3.93, 259.45 0.29 M239.77 22.93 C244.94 16.37, 251.24 9.91, 259.45 0.29 M245.41 22.53 C250.02 18.51, 252.78 12.28, 265.1 -0.11 M245.41 22.53 C252.63 14.28, 259.43 7.3, 265.1 -0.11 M250.4 22.89 C256.28 15.92, 265.39 7.85, 270.08 0.25 M250.4 22.89 C256.08 15.48, 263.17 8.61, 270.08 0.25 M256.04 22.5 C261.38 16.29, 270.75 6.94, 275.73 -0.14 M256.04 22.5 C261.21 16.57, 266.33 10.26, 275.73 -0.14 M261.03 22.86 C265.8 18.57, 270.21 10.32, 280.71 0.22 M261.03 22.86 C268.27 15.51, 273.14 8.85, 280.71 0.22 M266.67 22.46 C270.9 17.91, 275.71 10.88, 286.36 -0.18 M266.67 22.46 C272.4 17.69, 276.05 11.26, 286.36 -0.18 M271.66 22.82 C275.39 14.96, 281.41 9.29, 291.34 0.18 M271.66 22.82 C279.22 15.58, 286.13 6.63, 291.34 0.18 M277.3 22.43 C283.48 17.35, 286.43 11.15, 296.99 -0.21 M277.3 22.43 C282.7 16.86, 286.45 12.7, 296.99 -0.21 M282.29 22.79 C288.36 16.76, 297.27 5.34, 301.97 0.15 M282.29 22.79 C286.16 17.88, 289.78 12.48, 301.97 0.15 M287.93 22.4 C296.13 15.02, 302.75 4.46, 307.62 -0.25 M287.93 22.4 C292.12 17.21, 295.91 13.53, 307.62 -0.25 M292.92 22.76 C299.88 12.02, 306.79 4.39, 312.6 0.11 M292.92 22.76 C299.53 13.61, 307.81 7.26, 312.6 0.11 M298.56 22.36 C303.9 13.65, 311.6 6.07, 318.25 -0.28 M298.56 22.36 C304.39 15.74, 309.59 9.27, 318.25 -0.28 M303.55 22.72 C309.67 14.15, 316.94 8.37, 319.3 4.61 M303.55 22.72 C307.15 19.7, 309.83 14.16, 319.3 4.61 M309.19 22.33 C311.32 20.97, 312.5 17.24, 319.04 11.01 M309.19 22.33 C312.19 18.89, 315.46 14.49, 319.04 11.01 M314.18 22.69 C315.72 19.93, 317.31 18.04, 319.43 16.65 M314.18 22.69 C315.72 20.92, 316.96 19.92, 319.43 16.65" stroke="#40c057" stroke-width="0.5" fill="none"></path><path d="M0 0 C72.48 -0.88, 144.33 0.47, 319.32 0 M0 0 C85.97 0.82, 170.63 0.45, 319.32 0 M319.32 0 C317.46 5.88, 319.24 12.77, 319.32 22.49 M319.32 0 C320 8.78, 318.24 15.69, 319.32 22.49 M319.32 22.49 C232.59 23.01, 147.2 23, 0 22.49 M319.32 22.49 C245.98 23.22, 173.35 23.43, 0 22.49 M0 22.49 C-1.56 16.08, 1.25 9.51, 0 0 M0 22.49 C-0.2 15.33, 0.91 10.03, 0 0" stroke="#c8c8c8" stroke-width="1" fill="none"></path></g><g stroke-linecap="round" transform="translate(33.51579155315903 106.33310109701415) rotate(0 27.557782539615232 62.496186079401014)"><path d="M0 0 C0 0, 0 0, 0 0 M0 0 C0 0, 0 0, 0 0 M-0.26 6.4 C2.17 5.04, 3.76 2.76, 4.99 0.36 M-0.26 6.4 C1.47 4.98, 3 2.93, 4.99 0.36 M0.13 12.04 C2.73 7.79, 6.88 5.78, 10.63 -0.03 M0.13 12.04 C4.15 7.53, 6.82 4.49, 10.63 -0.03 M-0.13 18.44 C2.8 12.86, 5.56 10.7, 15.62 0.33 M-0.13 18.44 C6.57 11.48, 12.68 4.94, 15.62 0.33 M0.27 24.08 C7.52 13.96, 13.55 6.42, 21.26 -0.07 M0.27 24.08 C8.67 13.81, 16.5 5.84, 21.26 -0.07 M0 30.48 C11.41 19.86, 19.21 6.14, 26.25 0.29 M0 30.48 C7.45 20.33, 15.69 10.96, 26.25 0.29 M-0.26 36.88 C11.22 25.66, 20.46 10.84, 31.89 -0.1 M-0.26 36.88 C10.73 22.54, 24.18 9.79, 31.89 -0.1 M0.14 42.52 C8.55 31.06, 21.13 18.89, 36.88 0.26 M0.14 42.52 C9.22 30.11, 19.89 18.26, 36.88 0.26 M-0.12 48.92 C10.3 35.84, 20.72 23.97, 42.52 -0.14 M-0.12 48.92 C14.21 32.58, 29.4 15.95, 42.52 -0.14 M0.27 54.56 C10.08 41.95, 21.81 28.07, 47.51 0.22 M0.27 54.56 C10.77 42.91, 20.93 30.78, 47.51 0.22 M0.01 60.96 C16.38 40.77, 35.07 22.64, 53.15 -0.17 M0.01 60.96 C17.76 42.12, 34.57 22.69, 53.15 -0.17 M-0.25 67.36 C10.02 51.98, 21.28 38.94, 56.83 1.7 M-0.25 67.36 C18.15 46.25, 38.6 22.81, 56.83 1.7 M0.14 73 C18.07 50.5, 37.17 29.51, 57.22 7.34 M0.14 73 C22.48 47.18, 44.96 21.87, 57.22 7.34 M-0.12 79.4 C12.23 63.81, 27.95 48.76, 56.96 13.74 M-0.12 79.4 C20.17 55.44, 42.69 29.36, 56.96 13.74 M0.28 85.04 C22.83 61.91, 44.48 37.59, 56.7 20.14 M0.28 85.04 C22.22 60.71, 42.55 35.7, 56.7 20.14 M0.01 91.44 C18.3 67.91, 38.74 43.69, 57.09 25.78 M0.01 91.44 C21.85 67.28, 42.22 42.89, 57.09 25.78 M-0.25 97.84 C19.25 77.97, 36.14 56.14, 56.83 32.18 M-0.25 97.84 C19.97 73.02, 40.25 50.01, 56.83 32.18 M0.15 103.48 C15.78 82.37, 33.79 62.8, 57.22 37.82 M0.15 103.48 C12.84 88.48, 26.23 73.54, 57.22 37.82 M-0.11 109.88 C19.84 85.34, 43.91 57.97, 56.96 44.22 M-0.11 109.88 C21.95 83.68, 44.63 57.86, 56.96 44.22 M0.28 115.52 C11.25 101.87, 25.87 89.17, 56.7 50.62 M0.28 115.52 C11.33 101.85, 24.43 86.84, 56.7 50.62 M0.02 121.92 C17.39 101.39, 35.26 79.73, 57.1 56.26 M0.02 121.92 C19.32 98.91, 37.98 77.74, 57.1 56.26 M1.73 126.05 C19.03 107.03, 37.81 84.26, 56.84 62.66 M1.73 126.05 C15.5 109.21, 30.65 93.72, 56.84 62.66 M6.71 126.41 C16.37 113.13, 31.03 98.51, 57.23 68.3 M6.71 126.41 C20.54 109.91, 34.45 95.09, 57.23 68.3 M12.36 126.02 C24.72 113.11, 35.23 102.45, 56.97 74.7 M12.36 126.02 C21.22 114.07, 30.49 103.79, 56.97 74.7 M17.34 126.38 C33.54 111.45, 44.94 94.26, 56.71 81.09 M17.34 126.38 C27.66 115.94, 35.68 103.1, 56.71 81.09 M22.99 125.98 C31.29 112.73, 43.32 102.65, 57.1 86.74 M22.99 125.98 C29.48 117.6, 36.16 109.75, 57.1 86.74 M27.97 126.34 C37.35 115.88, 47.75 105.93, 56.84 93.14 M27.97 126.34 C38.03 115.04, 48.85 103.88, 56.84 93.14 M33.62 125.95 C38.48 121.8, 42.01 113.86, 57.23 98.78 M33.62 125.95 C41.18 118.7, 48.33 108.99, 57.23 98.78 M38.6 126.31 C41.45 122.91, 46.79 118.88, 56.97 105.18 M38.6 126.31 C42.36 120.72, 47.31 116.06, 56.97 105.18 M43.59 126.67 C47.8 124.86, 51.01 120.74, 56.71 111.57 M43.59 126.67 C45.98 123.85, 49.48 120.41, 56.71 111.57 M49.23 126.27 C52.45 122.46, 54.96 119.5, 57.11 117.22 M49.23 126.27 C50.86 124.02, 53.09 121.71, 57.11 117.22" stroke="#40c057" stroke-width="0.5" fill="none"></path><path d="M0 0 C18.59 1.36, 34 0.24, 55.12 0 M0 0 C15.56 -0.2, 31.04 -0.72, 55.12 0 M55.12 0 C53.98 42.35, 55.04 80.39, 55.12 124.99 M55.12 0 C55.16 44.66, 55.82 90.6, 55.12 124.99 M55.12 124.99 C41.08 127.41, 24.66 125.61, 0 124.99 M55.12 124.99 C36.6 124.66, 16.86 125.6, 0 124.99 M0 124.99 C2.29 88.41, 0.73 52.7, 0 0 M0 124.99 C1.16 82.42, -0.16 38.35, 0 0" stroke="#c8c8c8" stroke-width="1" fill="none"></path></g><g stroke-linecap="round" transform="translate(103.25756033177913 108.29733844513976) rotate(0 121.2452542348899 12.498338693229016)"><path d="M0 0 C0 0, 0 0, 0 0 M0 0 C0 0, 0 0, 0 0 M-0.26 6.4 C2.2 4.53, 3.17 1.44, 4.99 0.36 M-0.26 6.4 C2.02 3.97, 3.54 1.66, 4.99 0.36 M0.13 12.04 C4.17 8.91, 6.22 7.44, 10.63 -0.03 M0.13 12.04 C2.69 9.32, 5.35 5.56, 10.63 -0.03 M-0.13 18.44 C2.51 14.38, 8.82 11.8, 15.62 0.33 M-0.13 18.44 C5.38 13.34, 9.69 6.94, 15.62 0.33 M0.27 24.08 C6.35 14.87, 17.87 7.64, 21.26 -0.07 M0.27 24.08 C5.25 18.97, 11.26 13.31, 21.26 -0.07 M2.63 27.46 C7.41 19.51, 14.86 14.89, 26.25 0.29 M2.63 27.46 C8.79 19.44, 15.91 13.11, 26.25 0.29 M8.27 27.07 C13.11 18.98, 22.14 13.03, 31.89 -0.1 M8.27 27.07 C14.41 21.37, 19.14 14.31, 31.89 -0.1 M13.26 27.43 C21.69 18.38, 28.33 11.84, 36.88 0.26 M13.26 27.43 C18.29 20.75, 23.43 15.21, 36.88 0.26 M18.9 27.03 C24.99 18.89, 32.07 11.22, 42.52 -0.14 M18.9 27.03 C27.88 17.51, 35.08 8.55, 42.52 -0.14 M23.89 27.39 C31.8 17.43, 39.26 9, 47.51 0.22 M23.89 27.39 C31.22 19.06, 37.73 12.36, 47.51 0.22 M29.53 27 C36.18 21.81, 42.36 12.71, 53.15 -0.17 M29.53 27 C34.91 21.53, 38.88 15.21, 53.15 -0.17 M34.52 27.36 C41.32 16.82, 52.06 9.24, 58.14 0.19 M34.52 27.36 C40.14 20.88, 44.75 16.85, 58.14 0.19 M39.51 27.72 C47.57 18.33, 55.06 10.26, 63.78 -0.21 M39.51 27.72 C48.28 17.82, 55.77 8.58, 63.78 -0.21 M45.15 27.32 C54.15 19.07, 62.59 10.53, 68.77 0.15 M45.15 27.32 C53.01 18.13, 61.09 8.99, 68.77 0.15 M50.14 27.68 C58.82 20.24, 67.21 9.9, 74.41 -0.24 M50.14 27.68 C57.83 18.15, 67.19 8.54, 74.41 -0.24 M55.78 27.29 C63.65 15.91, 75.24 4.78, 79.4 0.12 M55.78 27.29 C64.12 17.17, 72.59 8.79, 79.4 0.12 M60.77 27.65 C68.35 19.23, 75.82 12.49, 85.04 -0.28 M60.77 27.65 C68.26 18.63, 77.02 9.82, 85.04 -0.28 M66.41 27.25 C70.6 20.8, 75.52 17.2, 90.03 0.08 M66.41 27.25 C72.97 20.18, 80.11 13.54, 90.03 0.08 M71.4 27.61 C77.78 19.71, 86.5 13.67, 95.67 -0.31 M71.4 27.61 C79.4 18.52, 86.73 8.21, 95.67 -0.31 M77.04 27.22 C83.38 22.19, 85.81 16.43, 100.66 0.05 M77.04 27.22 C82.15 20.57, 87.34 15.2, 100.66 0.05 M82.03 27.58 C87.29 19.37, 96.14 13.87, 106.3 -0.34 M82.03 27.58 C87.88 20.79, 95.28 12.87, 106.3 -0.34 M87.67 27.18 C97.85 15.68, 105.59 5.85, 111.29 0.02 M87.67 27.18 C95.63 19.41, 102.49 10.37, 111.29 0.02 M92.66 27.54 C99.85 19.93, 104.94 13.19, 116.27 0.38 M92.66 27.54 C102.08 17.76, 109.46 7.16, 116.27 0.38 M98.3 27.15 C105.08 21.42, 106.55 14.43, 121.92 -0.02 M98.3 27.15 C106.46 16.85, 116.43 6.47, 121.92 -0.02 M103.29 27.51 C110.87 17.76, 119.57 7.83, 126.91 0.34 M103.29 27.51 C111.1 16.33, 120.47 7.04, 126.91 0.34 M108.93 27.12 C118.5 16.86, 126.13 4.56, 132.55 -0.05 M108.93 27.12 C115.26 18.82, 123.43 10.2, 132.55 -0.05 M113.92 27.48 C120.77 21.5, 126.47 13.1, 137.54 0.31 M113.92 27.48 C121.87 19.67, 127.03 12.07, 137.54 0.31 M119.56 27.08 C125.16 18.22, 133.49 12.15, 143.18 -0.09 M119.56 27.08 C126.81 18.46, 131.7 10.96, 143.18 -0.09 M124.55 27.44 C131.63 21.14, 137.57 11.21, 148.17 0.27 M124.55 27.44 C131.47 19.56, 137.56 12.4, 148.17 0.27 M130.19 27.05 C139.37 18.82, 143.7 7.78, 153.81 -0.12 M130.19 27.05 C136.2 20.54, 144.12 12.09, 153.81 -0.12 M135.18 27.41 C140.74 20.66, 146.56 14.12, 158.8 0.24 M135.18 27.41 C145.28 15.91, 153.58 5.97, 158.8 0.24 M140.82 27.01 C150.11 19.12, 155.52 10.18, 164.44 -0.16 M140.82 27.01 C147.23 21.03, 151.33 13.08, 164.44 -0.16 M145.81 27.37 C152.69 20.53, 160.65 10.81, 169.43 0.2 M145.81 27.37 C152.86 18.19, 162.69 9.32, 169.43 0.2 M150.79 27.73 C161.98 17.92, 167.35 7.48, 175.07 -0.19 M150.79 27.73 C158.67 17.64, 169 8.36, 175.07 -0.19 M156.44 27.34 C167.26 17.44, 174.97 5.97, 180.06 0.17 M156.44 27.34 C165.7 16.26, 175.36 6.74, 180.06 0.17 M161.42 27.7 C166.31 20.34, 173.18 14.57, 185.7 -0.23 M161.42 27.7 C170.37 16.16, 180.82 5.02, 185.7 -0.23 M167.07 27.3 C173.93 19.73, 182.37 8.76, 190.69 0.13 M167.07 27.3 C174.16 19.96, 180.18 10.96, 190.69 0.13 M172.05 27.66 C180.6 19.07, 191.47 9.25, 196.33 -0.26 M172.05 27.66 C179.46 17.72, 188.15 8.26, 196.33 -0.26 M177.7 27.27 C187.34 18.73, 191.06 7.97, 201.32 0.1 M177.7 27.27 C185.12 19.03, 191.13 11.98, 201.32 0.1 M182.68 27.63 C192.26 20.41, 198.14 10.12, 206.96 -0.3 M182.68 27.63 C191.54 16.96, 198.57 8.32, 206.96 -0.3 M188.33 27.23 C194.2 21.39, 197.34 16.86, 211.95 0.06 M188.33 27.23 C195.42 17.74, 204.16 9.36, 211.95 0.06 M193.31 27.59 C199.34 23.21, 204.56 13.89, 217.59 -0.33 M193.31 27.59 C198.22 21.39, 203.05 14.42, 217.59 -0.33 M198.96 27.2 C204.57 19.59, 211.04 14.17, 222.58 0.03 M198.96 27.2 C206.39 18.12, 212.42 10.07, 222.58 0.03 M203.94 27.56 C214.22 16.52, 224.42 6.57, 228.22 -0.36 M203.94 27.56 C212.2 17.95, 219.29 9.32, 228.22 -0.36 M209.59 27.17 C218.94 18.91, 228.47 5.25, 233.21 0 M209.59 27.17 C217.51 16.88, 225.34 8.53, 233.21 0 M214.57 27.53 C218.3 21.23, 227.2 14.79, 238.19 0.36 M214.57 27.53 C222 19.82, 228.3 11.52, 238.19 0.36 M220.22 27.13 C227.28 18.9, 235.15 6.57, 243.18 0.72 M220.22 27.13 C228.2 19.57, 234.1 11.3, 243.18 0.72 M225.2 27.49 C232.9 21.79, 236.88 13.76, 242.92 7.11 M225.2 27.49 C230.08 22.29, 233.64 16.9, 242.92 7.11 M230.85 27.1 C234.5 23.95, 239.46 18.69, 243.31 12.76 M230.85 27.1 C234.33 24.32, 236.28 21.45, 243.31 12.76 M235.83 27.46 C237 26.18, 237.99 23.87, 243.05 19.15 M235.83 27.46 C237.27 25.49, 240.08 23.22, 243.05 19.15" stroke="#40c057" stroke-width="0.5" fill="none"></path><path d="M0 0 C62.47 -1.12, 125.8 0.23, 242.49 0 M0 0 C89.92 -0.66, 180.91 -1.14, 242.49 0 M242.49 0 C243.53 6.75, 243.66 17.34, 242.49 25 M242.49 0 C241.95 10.62, 241.89 18.91, 242.49 25 M242.49 25 C145.52 26.97, 51.66 26.46, 0 25 M242.49 25 C179.29 25.47, 116.35 24.21, 0 25 M0 25 C-0.3 17.69, 0.75 9.94, 0 0 M0 25 C-0.64 18.88, 0.31 12.46, 0 0" stroke="#c8c8c8" stroke-width="1" fill="none"></path></g><g stroke-linecap="round" transform="translate(104.33227881957919 146.69004177288662) rotate(0 121.2452542348899 41.903420684667196)"><path d="M0 0 C0 0, 0 0, 0 0 M0 0 C0 0, 0 0, 0 0 M-0.26 6.4 C1.47 3.41, 4.29 2.29, 4.99 0.36 M-0.26 6.4 C1.48 4.07, 3.44 1.88, 4.99 0.36 M0.13 12.04 C3.06 10.88, 4.52 7.72, 10.63 -0.03 M0.13 12.04 C2.13 9.28, 4.87 5.78, 10.63 -0.03 M-0.13 18.44 C4.92 16.22, 6.6 12.47, 15.62 0.33 M-0.13 18.44 C4.9 12.38, 9.72 7.53, 15.62 0.33 M0.27 24.08 C7.17 20.03, 9.05 13.67, 21.26 -0.07 M0.27 24.08 C5.52 19.72, 8.51 14.68, 21.26 -0.07 M0 30.48 C9.7 21.47, 18.22 8.25, 26.25 0.29 M0 30.48 C6.1 24.39, 10.88 18.14, 26.25 0.29 M-0.26 36.88 C13.3 23.84, 22.23 7.86, 31.89 -0.1 M-0.26 36.88 C6.69 27.85, 14.51 18.89, 31.89 -0.1 M0.14 42.52 C11.12 31.28, 21.45 14.5, 36.88 0.26 M0.14 42.52 C7.7 33.37, 15.82 24.51, 36.88 0.26 M-0.12 48.92 C10.74 35.88, 21.22 25.14, 42.52 -0.14 M-0.12 48.92 C13.24 33.28, 28.65 15.57, 42.52 -0.14 M0.27 54.56 C14.58 37.56, 31.91 19.5, 47.51 0.22 M0.27 54.56 C14.33 39.27, 27.75 21.93, 47.51 0.22 M0.01 60.96 C15.71 42.59, 29.09 26.26, 53.15 -0.17 M0.01 60.96 C16.98 40.12, 36.55 18.35, 53.15 -0.17 M-0.25 67.36 C13.89 53.76, 24.13 36.93, 58.14 0.19 M-0.25 67.36 C20.48 44.69, 41.03 19.85, 58.14 0.19 M0.14 73 C15.48 55.66, 28.78 40.76, 63.78 -0.21 M0.14 73 C16.68 53.34, 35.02 32.62, 63.78 -0.21 M-0.12 79.4 C22.51 55.76, 42.77 28.09, 68.77 0.15 M-0.12 79.4 C27.53 47.67, 53.97 17.84, 68.77 0.15 M1.59 83.53 C30.07 51.82, 56.66 21.34, 74.41 -0.24 M1.59 83.53 C28.53 53.67, 54.81 22.7, 74.41 -0.24 M6.58 83.89 C30.48 57.04, 52.38 34.44, 79.4 0.12 M6.58 83.89 C28.87 59.51, 50.81 34.14, 79.4 0.12 M12.22 83.5 C38 56.09, 62.25 26.07, 85.04 -0.28 M12.22 83.5 C28.98 65.39, 44.24 45.45, 85.04 -0.28 M17.21 83.86 C33.23 66.25, 50.92 45.23, 90.03 0.08 M17.21 83.86 C39.97 59.34, 60.67 32.13, 90.03 0.08 M22.85 83.46 C50.97 54.67, 75.75 23.24, 95.67 -0.31 M22.85 83.46 C43.95 57.34, 65.85 32.22, 95.67 -0.31 M27.84 83.82 C46.49 60.59, 67.06 34, 100.66 0.05 M27.84 83.82 C49.34 59.4, 70.14 35, 100.66 0.05 M32.82 84.18 C56.89 59.79, 78.06 32.85, 106.3 -0.34 M32.82 84.18 C50.28 64.72, 67.73 45.18, 106.3 -0.34 M38.47 83.79 C65.98 51.41, 95.83 17.06, 111.29 0.02 M38.47 83.79 C58.66 59.69, 79.91 33.85, 111.29 0.02 M43.45 84.15 C66.02 57.52, 91.57 31, 116.27 0.38 M43.45 84.15 C59.81 63.4, 77.31 44.3, 116.27 0.38 M49.1 83.75 C63.68 62.95, 84.07 42.8, 121.92 -0.02 M49.1 83.75 C65.14 66.11, 80.17 50.78, 121.92 -0.02 M54.08 84.11 C80.96 52.97, 111.06 22.25, 126.91 0.34 M54.08 84.11 C82.79 52.2, 111.96 19.02, 126.91 0.34 M59.73 83.72 C75.36 62.42, 94.78 42, 132.55 -0.05 M59.73 83.72 C79.6 61.39, 97.79 40.33, 132.55 -0.05 M64.71 84.08 C87.15 57.57, 108.23 33.24, 137.54 0.31 M64.71 84.08 C85.28 58.99, 108.39 32.71, 137.54 0.31 M70.36 83.68 C98.46 53.54, 125.67 21.93, 143.18 -0.09 M70.36 83.68 C96.2 52, 124.34 20.65, 143.18 -0.09 M75.34 84.04 C100.68 52.95, 128.16 21.13, 148.17 0.27 M75.34 84.04 C92.56 64.03, 111.59 43.47, 148.17 0.27 M80.99 83.65 C106.02 50.41, 133.61 19.44, 153.81 -0.12 M80.99 83.65 C109.95 51.14, 136.21 19.74, 153.81 -0.12 M85.97 84.01 C105.21 61.86, 129.21 36.56, 158.8 0.24 M85.97 84.01 C104.28 62.45, 123.57 39.73, 158.8 0.24 M91.62 83.62 C111.43 59.56, 131.03 36.75, 164.44 -0.16 M91.62 83.62 C118.81 49.46, 147.82 16.67, 164.44 -0.16 M96.6 83.98 C113.84 64.02, 129.72 47.7, 169.43 0.2 M96.6 83.98 C113.2 67.14, 128.12 49.21, 169.43 0.2 M102.25 83.58 C123.75 56.37, 150.81 26.62, 175.07 -0.19 M102.25 83.58 C122.08 63.13, 140.28 41.87, 175.07 -0.19 M107.23 83.94 C135.91 50, 165.7 19.62, 180.06 0.17 M107.23 83.94 C132.11 56.87, 155.45 28.71, 180.06 0.17 M112.88 83.55 C132.46 62.23, 155.18 35.79, 185.7 -0.23 M112.88 83.55 C134.56 59.16, 155.86 35.49, 185.7 -0.23 M117.86 83.91 C136.52 61.35, 156.05 41.49, 190.69 0.13 M117.86 83.91 C139.83 56.79, 163.27 32.44, 190.69 0.13 M123.51 83.51 C141.29 66.59, 155.91 48, 196.33 -0.26 M123.51 83.51 C148.83 54.67, 173.42 26.37, 196.33 -0.26 M128.49 83.87 C149.45 54.68, 174.63 27.82, 201.32 0.1 M128.49 83.87 C156.81 51.17, 185.88 18.16, 201.32 0.1 M134.14 83.48 C149.17 64.89, 166.11 47.42, 206.96 -0.3 M134.14 83.48 C158.18 55.13, 183.05 26.13, 206.96 -0.3 M139.12 83.84 C162.92 56.11, 188.86 27.74, 211.95 0.06 M139.12 83.84 C158.76 62.65, 176.39 41.04, 211.95 0.06 M144.77 83.44 C165.21 58.14, 183.19 38.25, 217.59 -0.33 M144.77 83.44 C170.03 52.94, 195.47 23.62, 217.59 -0.33 M149.75 83.8 C173.3 57.86, 194.29 33.78, 222.58 0.03 M149.75 83.8 C175.64 52.77, 203.61 22.87, 222.58 0.03 M154.74 84.16 C180.89 56.36, 205.27 27.89, 228.22 -0.36 M154.74 84.16 C176.15 59.05, 199.89 33.15, 228.22 -0.36 M160.38 83.77 C181.23 58.63, 200.16 39.03, 233.21 0 M160.38 83.77 C189.13 51.13, 217.06 17.23, 233.21 0 M165.37 84.13 C190.27 57.92, 210.32 31.56, 238.19 0.36 M165.37 84.13 C183.29 62.53, 202.22 42.44, 238.19 0.36 M171.01 83.73 C193.11 55.15, 218.68 28.94, 243.18 0.72 M171.01 83.73 C185.63 65.74, 202.61 46.28, 243.18 0.72 M176 84.09 C189.33 67.13, 202.99 52.04, 242.92 7.11 M176 84.09 C198.12 57.52, 221.95 31.58, 242.92 7.11 M181.64 83.7 C196.02 68.41, 205.52 54.46, 243.31 12.76 M181.64 83.7 C200.99 61.22, 219.53 38.71, 243.31 12.76 M186.63 84.06 C199.54 67.22, 214.14 52.67, 243.05 19.15 M186.63 84.06 C201.85 68.15, 215.31 51.45, 243.05 19.15 M192.27 83.67 C209.73 66.09, 223.49 47.61, 243.45 24.8 M192.27 83.67 C211 61.04, 231.22 39.79, 243.45 24.8 M197.26 84.03 C213.74 64.3, 229.16 47.38, 243.18 31.2 M197.26 84.03 C210.99 67.4, 225.75 52.72, 243.18 31.2 M202.9 83.63 C214.93 71.47, 224.57 59.15, 242.92 37.59 M202.9 83.63 C213.99 70.65, 226.13 57.61, 242.92 37.59 M207.89 83.99 C215.62 77.2, 222.62 65.64, 243.32 43.24 M207.89 83.99 C222.78 67.33, 236.65 51.08, 243.32 43.24 M213.53 83.6 C222.23 73.12, 236.03 58.48, 243.06 49.63 M213.53 83.6 C222.34 71.93, 231.28 61.59, 243.06 49.63 M218.52 83.96 C225.47 78.61, 231.63 71.97, 243.45 55.28 M218.52 83.96 C224.96 76.89, 232.27 68.23, 243.45 55.28 M224.16 83.56 C228.95 78.65, 234.84 70.46, 243.19 61.68 M224.16 83.56 C231.39 75.07, 239.17 67.94, 243.19 61.68 M229.15 83.92 C230.54 79.76, 234.7 75.25, 242.93 68.07 M229.15 83.92 C231.75 80.98, 235.29 77.27, 242.93 68.07 M234.79 83.53 C236.04 80.71, 238.85 77.51, 243.32 73.72 M234.79 83.53 C237.99 79.84, 240.1 76.13, 243.32 73.72 M239.78 83.89 C241.08 82.66, 241.12 82.25, 243.06 80.11 M239.78 83.89 C241.04 82.27, 242.12 80.94, 243.06 80.11" stroke="#40c057" stroke-width="0.5" fill="none"></path><path d="M0 0 C86.29 1.35, 174.24 -0.38, 242.49 0 M0 0 C77.77 -0.1, 155.22 0.64, 242.49 0 M242.49 0 C244.1 33.46, 244.64 61.78, 242.49 83.81 M242.49 0 C241.87 23.5, 243.19 47.96, 242.49 83.81 M242.49 83.81 C147.55 83.46, 50.45 84.74, 0 83.81 M242.49 83.81 C172.27 84.91, 102.17 86.07, 0 83.81 M0 83.81 C0.98 60.07, -1.05 38.94, 0 0 M0 83.81 C0.88 52.1, 1.17 21.22, 0 0" stroke="#c8c8c8" stroke-width="1" fill="none"></path></g></svg>